<?xml version="1.0" encoding="UTF-8"?>
<!DOCTYPE svg PUBLIC "-//W3C//DTD SVG 1.1//EN" "http://www.w3.org/Graphics/SVG/1.1/DTD/svg11.dtd">
<!-- Creator: CorelDRAW X7 -->
<svg xmlns="http://www.w3.org/2000/svg" xml:space="preserve" width="0.323339in" height="0.323339in" version="1.1" style="shape-rendering:geometricPrecision; text-rendering:geometricPrecision; image-rendering:optimizeQuality; fill-rule:evenodd; clip-rule:evenodd"
viewBox="0 0 323 323"
 xmlns:xlink="http://www.w3.org/1999/xlink">
 <defs>
  <style type="text/css">
   <![CDATA[
    .fil2 {fill:black}
    .fil1 {fill:black;fill-rule:nonzero}
    .fil0 {fill:black;fill-rule:nonzero}
   ]]>
  </style>
 </defs>
 <g id="Layer_x0020_1">
  <metadata id="CorelCorpID_0Corel-Layer"/>
  <path class="fil0" d="M97 200c-10,11 -6,30 8,38 11,7 34,10 41,-2l-49 -36zm1 -7l57 41c-7,20 -38,19 -55,8 -19,-11 -23,-39 -2,-49z"/>
  <path class="fil0" d="M241 242c-17,11 -48,11 -54,-8l56 -41c22,10 17,38 -2,49zm3 -42l-49 36c7,12 30,9 41,2 14,-8 18,-27 8,-38z"/>
  <path class="fil1" d="M149 280c0,-2 0,-4 0,-5 5,0 10,0 14,0l-1 8c-4,-1 -9,-2 -13,-3zm-47 -14l-1 8c55,19 133,55 147,-21 -30,18 -106,15 -146,13zm40 9c0,1 0,2 0,3 -4,-1 -8,-2 -12,-3 4,0 8,0 12,0zm63 -2l-2 15c-5,0 -10,0 -15,-1l2 -13c5,0 10,0 15,-1zm7 -1c11,-1 19,-3 26,-5 -4,8 -13,17 -28,21l2 -16zm-31 14c-4,0 -8,-1 -12,-2l1 -9c5,0 9,0 13,0l-2 11z"/>
  <path class="fil1" d="M267 97c-23,1 -44,26 -56,44 36,13 67,46 67,88 0,58 -54,94 -104,94 -51,0 -104,-36 -104,-94 0,-39 26,-71 59,-85 -16,-11 -41,-25 -61,-19 -4,19 -15,46 -38,35 -37,-20 -40,-92 -7,-121 47,-41 111,63 127,98 14,-3 29,-3 43,0 4,-37 10,-66 19,-88 47,-113 148,-3 97,54 -9,11 -23,12 -42,-6zm3 -4c16,16 29,16 36,7 45,-50 -44,-158 -90,-49 -11,28 -16,61 -19,91 -17,-3 -32,-3 -50,1 -15,-34 -77,-138 -121,-101 -31,27 -28,96 6,113 20,11 29,-18 32,-33 26,-10 54,8 75,23 -35,14 -65,42 -65,84 0,55 52,90 100,90 48,0 99,-35 99,-90 0,-44 -32,-73 -69,-85 11,-16 45,-60 66,-51z"/>
  <path class="fil2" d="M51 96c4,9 6,23 3,40 6,-12 8,-25 6,-41 -4,-3 -7,-3 -9,1z"/>
  <path class="fil1" d="M48 96c4,-6 11,-8 14,-1 2,14 1,29 -6,42l-4 -2c2,-13 2,-27 -4,-39z"/>
  <path class="fil2" d="M258 72c7,11 15,19 25,23 -9,-8 -15,-17 -19,-27 -4,3 -6,4 -6,4z"/>
  <path class="fil1" d="M254 71l11 -6c5,11 10,20 19,29l-2 4c-12,-6 -20,-16 -28,-27z"/>
  <path class="fil1" d="M41 177c3,-1 7,0 10,1 2,-2 3,-4 5,-6l5 5c-1,1 -3,3 -4,5 3,2 5,5 7,8l-6 3c-2,-2 -3,-4 -5,-5 -2,5 -4,11 -5,17 3,1 6,2 9,3l-3 6c-2,-1 -4,-1 -7,-2 0,3 0,6 1,9l-7 1c-1,-4 -1,-7 0,-11 -3,0 -5,1 -7,1l-1 -7c2,0 5,0 8,0 1,-8 3,-14 6,-21 -2,0 -4,-1 -6,0l0 -7z"/>
  <path class="fil1" d="M35 252c3,-3 6,-5 9,-6 0,-2 0,-5 0,-8l6 1c0,2 1,4 1,6 3,0 7,1 10,2l-2 6c-3,-1 -5,-1 -7,-1 1,6 4,11 7,17 3,-2 6,-3 9,-4l2 6c-2,1 -5,2 -7,3 2,3 4,5 7,7l-5 5c-3,-2 -5,-5 -7,-8 -2,2 -3,3 -5,5l-5 -4c2,-3 4,-5 6,-6 -4,-6 -7,-13 -9,-20 -2,1 -4,2 -5,4l-5 -5z"/>
 </g>
</svg>
